<?xml version="1.0" encoding="utf-8" standalone="no"?>
<!DOCTYPE svg PUBLIC "-//W3C//DTD SVG 1.1//EN"
  "http://www.w3.org/Graphics/SVG/1.1/DTD/svg11.dtd">
<!-- Created with matplotlib (http://matplotlib.org/) -->
<svg height="1080pt" version="1.1" viewBox="0 0 1440 1080" width="1440pt" xmlns="http://www.w3.org/2000/svg" xmlns:xlink="http://www.w3.org/1999/xlink">
 <defs>
  <style type="text/css">
*{stroke-linecap:butt;stroke-linejoin:round;stroke-miterlimit:100000;}
  </style>
 </defs>
 <g id="figure_1">
  <g id="patch_1">
   <path d="M 0 1080 
L 1440 1080 
L 1440 0 
L 0 0 
z
" style="fill:#ffffff;"/>
  </g>
  <g id="axes_1">
   <g id="patch_2">
    <path d="M 180 945 
L 1296 945 
L 1296 108 
L 180 108 
z
" style="fill:#eaeaf2;"/>
   </g>
   <g id="matplotlib.axis_1">
    <g id="xtick_1">
     <g id="line2d_1">
      <path clip-path="url(#pc057569fe7)" d="M 180 945 
L 180 108 
" style="fill:none;stroke:#ffffff;stroke-linecap:round;"/>
     </g>
     <g id="line2d_2">
      <defs>
       <path d="M 0 0 
L 0 0 
" id="m8077a3d434" style="stroke:#262626;"/>
      </defs>
      <g>
       <use style="fill:#262626;stroke:#262626;" x="180.0" xlink:href="#m8077a3d434" y="945.0"/>
      </g>
     </g>
     <g id="line2d_3">
      <g>
       <use style="fill:#262626;stroke:#262626;" x="180.0" xlink:href="#m8077a3d434" y="108.0"/>
      </g>
     </g>
     <g id="text_1">
      <!-- −1.5 -->
      <defs>
       <path d="M 9.125 0 
L 9.125 10.6875 
L 18.65625 10.6875 
L 18.65625 0 
z
" id="LiberationSans-2e"/>
       <path d="M 7.625 0 
L 7.625 7.46875 
L 25.140625 7.46875 
L 25.140625 60.40625 
L 9.625 49.3125 
L 9.625 57.625 
L 25.875 68.796875 
L 33.984375 68.796875 
L 33.984375 7.46875 
L 50.734375 7.46875 
L 50.734375 0 
z
" id="LiberationSans-31"/>
       <path d="M 51.421875 22.40625 
Q 51.421875 17.234375 49.859375 12.9375 
Q 48.296875 8.640625 45.21875 5.53125 
Q 42.140625 2.4375 37.578125 0.71875 
Q 33.015625 -0.984375 27 -0.984375 
Q 21.578125 -0.984375 17.546875 0.28125 
Q 13.53125 1.5625 10.734375 3.78125 
Q 7.953125 6 6.3125 8.984375 
Q 4.6875 11.96875 4 15.375 
L 12.890625 16.40625 
Q 13.421875 14.453125 14.390625 12.625 
Q 15.375 10.796875 17.0625 9.34375 
Q 18.75 7.90625 21.21875 7.046875 
Q 23.6875 6.203125 27.203125 6.203125 
Q 30.609375 6.203125 33.390625 7.25 
Q 36.1875 8.296875 38.15625 10.34375 
Q 40.140625 12.40625 41.203125 15.375 
Q 42.28125 18.359375 42.28125 22.21875 
Q 42.28125 25.390625 41.25 28.046875 
Q 40.234375 30.71875 38.328125 32.640625 
Q 36.421875 34.578125 33.65625 35.640625 
Q 30.90625 36.71875 27.390625 36.71875 
Q 25.203125 36.71875 23.34375 36.328125 
Q 21.484375 35.9375 19.890625 35.25 
Q 18.3125 34.578125 17.015625 33.671875 
Q 15.71875 32.765625 14.59375 31.78125 
L 6 31.78125 
L 8.296875 68.796875 
L 47.40625 68.796875 
L 47.40625 61.328125 
L 16.3125 61.328125 
L 14.984375 39.5 
Q 17.328125 41.3125 20.84375 42.59375 
Q 24.359375 43.890625 29.203125 43.890625 
Q 34.328125 43.890625 38.421875 42.328125 
Q 42.53125 40.765625 45.40625 37.90625 
Q 48.296875 35.0625 49.859375 31.109375 
Q 51.421875 27.15625 51.421875 22.40625 
" id="LiberationSans-35"/>
       <path d="M 4.9375 29.6875 
L 4.9375 36.8125 
L 53.515625 36.8125 
L 53.515625 29.6875 
z
" id="LiberationSans-2212"/>
      </defs>
      <g style="fill:#262626;" transform="translate(170.1296875 959.246875)scale(0.1 -0.1)">
       <use xlink:href="#LiberationSans-2212"/>
       <use x="58.3984375" xlink:href="#LiberationSans-31"/>
       <use x="114.013671875" xlink:href="#LiberationSans-2e"/>
       <use x="141.796875" xlink:href="#LiberationSans-35"/>
      </g>
     </g>
    </g>
    <g id="xtick_2">
     <g id="line2d_4">
      <path clip-path="url(#pc057569fe7)" d="M 304 945 
L 304 108 
" style="fill:none;stroke:#ffffff;stroke-linecap:round;"/>
     </g>
     <g id="line2d_5">
      <g>
       <use style="fill:#262626;stroke:#262626;" x="304.0" xlink:href="#m8077a3d434" y="945.0"/>
      </g>
     </g>
     <g id="line2d_6">
      <g>
       <use style="fill:#262626;stroke:#262626;" x="304.0" xlink:href="#m8077a3d434" y="108.0"/>
      </g>
     </g>
     <g id="text_2">
      <!-- −1.0 -->
      <defs>
       <path d="M 51.703125 34.421875 
Q 51.703125 24.515625 49.828125 17.75 
Q 47.953125 10.984375 44.703125 6.8125 
Q 41.453125 2.640625 37.0625 0.828125 
Q 32.671875 -0.984375 27.6875 -0.984375 
Q 22.65625 -0.984375 18.3125 0.828125 
Q 13.96875 2.640625 10.765625 6.78125 
Q 7.5625 10.9375 5.734375 17.703125 
Q 3.90625 24.46875 3.90625 34.421875 
Q 3.90625 44.828125 5.734375 51.640625 
Q 7.5625 58.453125 10.78125 62.5 
Q 14.015625 66.546875 18.40625 68.1875 
Q 22.796875 69.828125 27.984375 69.828125 
Q 32.90625 69.828125 37.21875 68.1875 
Q 41.546875 66.546875 44.765625 62.5 
Q 48 58.453125 49.84375 51.640625 
Q 51.703125 44.828125 51.703125 34.421875 
M 42.78125 34.421875 
Q 42.78125 42.625 41.796875 48.0625 
Q 40.828125 53.515625 38.921875 56.765625 
Q 37.015625 60.015625 34.25 61.359375 
Q 31.5 62.703125 27.984375 62.703125 
Q 24.265625 62.703125 21.4375 61.328125 
Q 18.609375 59.96875 16.671875 56.71875 
Q 14.75 53.46875 13.765625 48.015625 
Q 12.796875 42.578125 12.796875 34.421875 
Q 12.796875 26.515625 13.796875 21.09375 
Q 14.796875 15.671875 16.71875 12.375 
Q 18.65625 9.078125 21.4375 7.640625 
Q 24.21875 6.203125 27.78125 6.203125 
Q 31.25 6.203125 34.03125 7.640625 
Q 36.8125 9.078125 38.734375 12.375 
Q 40.671875 15.671875 41.71875 21.09375 
Q 42.78125 26.515625 42.78125 34.421875 
" id="LiberationSans-30"/>
      </defs>
      <g style="fill:#262626;" transform="translate(294.1296875 959.246875)scale(0.1 -0.1)">
       <use xlink:href="#LiberationSans-2212"/>
       <use x="58.3984375" xlink:href="#LiberationSans-31"/>
       <use x="114.013671875" xlink:href="#LiberationSans-2e"/>
       <use x="141.796875" xlink:href="#LiberationSans-30"/>
      </g>
     </g>
    </g>
    <g id="xtick_3">
     <g id="line2d_7">
      <path clip-path="url(#pc057569fe7)" d="M 428 945 
L 428 108 
" style="fill:none;stroke:#ffffff;stroke-linecap:round;"/>
     </g>
     <g id="line2d_8">
      <g>
       <use style="fill:#262626;stroke:#262626;" x="428.0" xlink:href="#m8077a3d434" y="945.0"/>
      </g>
     </g>
     <g id="line2d_9">
      <g>
       <use style="fill:#262626;stroke:#262626;" x="428.0" xlink:href="#m8077a3d434" y="108.0"/>
      </g>
     </g>
     <g id="text_3">
      <!-- −0.5 -->
      <g style="fill:#262626;" transform="translate(418.1296875 959.246875)scale(0.1 -0.1)">
       <use xlink:href="#LiberationSans-2212"/>
       <use x="58.3984375" xlink:href="#LiberationSans-30"/>
       <use x="114.013671875" xlink:href="#LiberationSans-2e"/>
       <use x="141.796875" xlink:href="#LiberationSans-35"/>
      </g>
     </g>
    </g>
    <g id="xtick_4">
     <g id="line2d_10">
      <path clip-path="url(#pc057569fe7)" d="M 552 945 
L 552 108 
" style="fill:none;stroke:#ffffff;stroke-linecap:round;"/>
     </g>
     <g id="line2d_11">
      <g>
       <use style="fill:#262626;stroke:#262626;" x="552.0" xlink:href="#m8077a3d434" y="945.0"/>
      </g>
     </g>
     <g id="line2d_12">
      <g>
       <use style="fill:#262626;stroke:#262626;" x="552.0" xlink:href="#m8077a3d434" y="108.0"/>
      </g>
     </g>
     <g id="text_4">
      <!-- 0.0 -->
      <g style="fill:#262626;" transform="translate(545.05 959.246875)scale(0.1 -0.1)">
       <use xlink:href="#LiberationSans-30"/>
       <use x="55.615234375" xlink:href="#LiberationSans-2e"/>
       <use x="83.3984375" xlink:href="#LiberationSans-30"/>
      </g>
     </g>
    </g>
    <g id="xtick_5">
     <g id="line2d_13">
      <path clip-path="url(#pc057569fe7)" d="M 676 945 
L 676 108 
" style="fill:none;stroke:#ffffff;stroke-linecap:round;"/>
     </g>
     <g id="line2d_14">
      <g>
       <use style="fill:#262626;stroke:#262626;" x="676.0" xlink:href="#m8077a3d434" y="945.0"/>
      </g>
     </g>
     <g id="line2d_15">
      <g>
       <use style="fill:#262626;stroke:#262626;" x="676.0" xlink:href="#m8077a3d434" y="108.0"/>
      </g>
     </g>
     <g id="text_5">
      <!-- 0.5 -->
      <g style="fill:#262626;" transform="translate(669.05 959.246875)scale(0.1 -0.1)">
       <use xlink:href="#LiberationSans-30"/>
       <use x="55.615234375" xlink:href="#LiberationSans-2e"/>
       <use x="83.3984375" xlink:href="#LiberationSans-35"/>
      </g>
     </g>
    </g>
    <g id="xtick_6">
     <g id="line2d_16">
      <path clip-path="url(#pc057569fe7)" d="M 800 945 
L 800 108 
" style="fill:none;stroke:#ffffff;stroke-linecap:round;"/>
     </g>
     <g id="line2d_17">
      <g>
       <use style="fill:#262626;stroke:#262626;" x="800.0" xlink:href="#m8077a3d434" y="945.0"/>
      </g>
     </g>
     <g id="line2d_18">
      <g>
       <use style="fill:#262626;stroke:#262626;" x="800.0" xlink:href="#m8077a3d434" y="108.0"/>
      </g>
     </g>
     <g id="text_6">
      <!-- 1.0 -->
      <g style="fill:#262626;" transform="translate(793.05 959.246875)scale(0.1 -0.1)">
       <use xlink:href="#LiberationSans-31"/>
       <use x="55.615234375" xlink:href="#LiberationSans-2e"/>
       <use x="83.3984375" xlink:href="#LiberationSans-30"/>
      </g>
     </g>
    </g>
    <g id="xtick_7">
     <g id="line2d_19">
      <path clip-path="url(#pc057569fe7)" d="M 924 945 
L 924 108 
" style="fill:none;stroke:#ffffff;stroke-linecap:round;"/>
     </g>
     <g id="line2d_20">
      <g>
       <use style="fill:#262626;stroke:#262626;" x="924.0" xlink:href="#m8077a3d434" y="945.0"/>
      </g>
     </g>
     <g id="line2d_21">
      <g>
       <use style="fill:#262626;stroke:#262626;" x="924.0" xlink:href="#m8077a3d434" y="108.0"/>
      </g>
     </g>
     <g id="text_7">
      <!-- 1.5 -->
      <g style="fill:#262626;" transform="translate(917.05 959.246875)scale(0.1 -0.1)">
       <use xlink:href="#LiberationSans-31"/>
       <use x="55.615234375" xlink:href="#LiberationSans-2e"/>
       <use x="83.3984375" xlink:href="#LiberationSans-35"/>
      </g>
     </g>
    </g>
    <g id="xtick_8">
     <g id="line2d_22">
      <path clip-path="url(#pc057569fe7)" d="M 1048 945 
L 1048 108 
" style="fill:none;stroke:#ffffff;stroke-linecap:round;"/>
     </g>
     <g id="line2d_23">
      <g>
       <use style="fill:#262626;stroke:#262626;" x="1048.0" xlink:href="#m8077a3d434" y="945.0"/>
      </g>
     </g>
     <g id="line2d_24">
      <g>
       <use style="fill:#262626;stroke:#262626;" x="1048.0" xlink:href="#m8077a3d434" y="108.0"/>
      </g>
     </g>
     <g id="text_8">
      <!-- 2.0 -->
      <defs>
       <path d="M 5.03125 0 
L 5.03125 6.203125 
Q 7.515625 11.921875 11.109375 16.28125 
Q 14.703125 20.65625 18.65625 24.1875 
Q 22.609375 27.734375 26.484375 30.765625 
Q 30.375 33.796875 33.5 36.8125 
Q 36.625 39.84375 38.546875 43.15625 
Q 40.484375 46.484375 40.484375 50.6875 
Q 40.484375 53.609375 39.59375 55.828125 
Q 38.71875 58.0625 37.0625 59.5625 
Q 35.40625 61.078125 33.078125 61.828125 
Q 30.765625 62.59375 27.9375 62.59375 
Q 25.296875 62.59375 22.96875 61.859375 
Q 20.65625 61.140625 18.84375 59.671875 
Q 17.046875 58.203125 15.890625 56.03125 
Q 14.75 53.859375 14.40625 50.984375 
L 5.421875 51.8125 
Q 5.859375 55.515625 7.46875 58.78125 
Q 9.078125 62.0625 11.90625 64.53125 
Q 14.75 67 18.71875 68.40625 
Q 22.703125 69.828125 27.9375 69.828125 
Q 33.0625 69.828125 37.0625 68.609375 
Q 41.0625 67.390625 43.8125 64.984375 
Q 46.578125 62.59375 48.046875 59.078125 
Q 49.515625 55.5625 49.515625 50.984375 
Q 49.515625 47.515625 48.265625 44.390625 
Q 47.015625 41.265625 44.9375 38.421875 
Q 42.875 35.59375 40.140625 32.953125 
Q 37.40625 30.328125 34.421875 27.8125 
Q 31.453125 25.296875 28.421875 22.828125 
Q 25.390625 20.359375 22.71875 17.859375 
Q 20.0625 15.375 17.96875 12.8125 
Q 15.875 10.25 14.703125 7.46875 
L 50.59375 7.46875 
L 50.59375 0 
z
" id="LiberationSans-32"/>
      </defs>
      <g style="fill:#262626;" transform="translate(1041.05 959.246875)scale(0.1 -0.1)">
       <use xlink:href="#LiberationSans-32"/>
       <use x="55.615234375" xlink:href="#LiberationSans-2e"/>
       <use x="83.3984375" xlink:href="#LiberationSans-30"/>
      </g>
     </g>
    </g>
    <g id="xtick_9">
     <g id="line2d_25">
      <path clip-path="url(#pc057569fe7)" d="M 1172 945 
L 1172 108 
" style="fill:none;stroke:#ffffff;stroke-linecap:round;"/>
     </g>
     <g id="line2d_26">
      <g>
       <use style="fill:#262626;stroke:#262626;" x="1172.0" xlink:href="#m8077a3d434" y="945.0"/>
      </g>
     </g>
     <g id="line2d_27">
      <g>
       <use style="fill:#262626;stroke:#262626;" x="1172.0" xlink:href="#m8077a3d434" y="108.0"/>
      </g>
     </g>
     <g id="text_9">
      <!-- 2.5 -->
      <g style="fill:#262626;" transform="translate(1165.05 959.246875)scale(0.1 -0.1)">
       <use xlink:href="#LiberationSans-32"/>
       <use x="55.615234375" xlink:href="#LiberationSans-2e"/>
       <use x="83.3984375" xlink:href="#LiberationSans-35"/>
      </g>
     </g>
    </g>
    <g id="xtick_10">
     <g id="line2d_28">
      <path clip-path="url(#pc057569fe7)" d="M 1296 945 
L 1296 108 
" style="fill:none;stroke:#ffffff;stroke-linecap:round;"/>
     </g>
     <g id="line2d_29">
      <g>
       <use style="fill:#262626;stroke:#262626;" x="1296.0" xlink:href="#m8077a3d434" y="945.0"/>
      </g>
     </g>
     <g id="line2d_30">
      <g>
       <use style="fill:#262626;stroke:#262626;" x="1296.0" xlink:href="#m8077a3d434" y="108.0"/>
      </g>
     </g>
     <g id="text_10">
      <!-- 3.0 -->
      <defs>
       <path d="M 51.21875 19 
Q 51.21875 14.265625 49.671875 10.546875 
Q 48.140625 6.84375 45.1875 4.265625 
Q 42.234375 1.703125 37.859375 0.359375 
Q 33.5 -0.984375 27.875 -0.984375 
Q 21.484375 -0.984375 17.109375 0.609375 
Q 12.75 2.203125 9.90625 4.8125 
Q 7.078125 7.421875 5.65625 10.765625 
Q 4.25 14.109375 3.8125 17.671875 
L 12.890625 18.5 
Q 13.28125 15.765625 14.328125 13.515625 
Q 15.375 11.28125 17.1875 9.671875 
Q 19 8.0625 21.625 7.171875 
Q 24.265625 6.296875 27.875 6.296875 
Q 34.515625 6.296875 38.296875 9.5625 
Q 42.09375 12.84375 42.09375 19.28125 
Q 42.09375 23.09375 40.40625 25.40625 
Q 38.71875 27.734375 36.203125 29.03125 
Q 33.6875 30.328125 30.734375 30.765625 
Q 27.78125 31.203125 25.296875 31.203125 
L 20.3125 31.203125 
L 20.3125 38.8125 
L 25.09375 38.8125 
Q 27.59375 38.8125 30.265625 39.328125 
Q 32.953125 39.84375 35.171875 41.1875 
Q 37.40625 42.53125 38.84375 44.828125 
Q 40.28125 47.125 40.28125 50.6875 
Q 40.28125 56.203125 37.03125 59.390625 
Q 33.796875 62.59375 27.390625 62.59375 
Q 21.578125 62.59375 17.984375 59.609375 
Q 14.40625 56.640625 13.8125 51.21875 
L 4.984375 51.90625 
Q 5.515625 56.453125 7.46875 59.8125 
Q 9.421875 63.1875 12.421875 65.40625 
Q 15.4375 67.625 19.28125 68.71875 
Q 23.140625 69.828125 27.484375 69.828125 
Q 33.25 69.828125 37.390625 68.375 
Q 41.546875 66.9375 44.1875 64.46875 
Q 46.828125 62.015625 48.0625 58.6875 
Q 49.3125 55.375 49.3125 51.609375 
Q 49.3125 48.578125 48.484375 45.9375 
Q 47.65625 43.3125 45.890625 41.203125 
Q 44.140625 39.109375 41.421875 37.59375 
Q 38.71875 36.078125 34.90625 35.296875 
L 34.90625 35.109375 
Q 39.0625 34.671875 42.140625 33.21875 
Q 45.21875 31.78125 47.21875 29.625 
Q 49.21875 27.484375 50.21875 24.75 
Q 51.21875 22.015625 51.21875 19 
" id="LiberationSans-33"/>
      </defs>
      <g style="fill:#262626;" transform="translate(1289.05 959.246875)scale(0.1 -0.1)">
       <use xlink:href="#LiberationSans-33"/>
       <use x="55.615234375" xlink:href="#LiberationSans-2e"/>
       <use x="83.3984375" xlink:href="#LiberationSans-30"/>
      </g>
     </g>
    </g>
   </g>
   <g id="matplotlib.axis_2">
    <g id="ytick_1">
     <g id="line2d_31">
      <path clip-path="url(#pc057569fe7)" d="M 180 945 
L 1296 945 
" style="fill:none;stroke:#ffffff;stroke-linecap:round;"/>
     </g>
     <g id="line2d_32">
      <g>
       <use style="fill:#262626;stroke:#262626;" x="180.0" xlink:href="#m8077a3d434" y="945.0"/>
      </g>
     </g>
     <g id="line2d_33">
      <g>
       <use style="fill:#262626;stroke:#262626;" x="1296.0" xlink:href="#m8077a3d434" y="945.0"/>
      </g>
     </g>
     <g id="text_11">
      <!-- 0.0 -->
      <g style="fill:#262626;" transform="translate(159.1 947.5859375)scale(0.1 -0.1)">
       <use xlink:href="#LiberationSans-30"/>
       <use x="55.615234375" xlink:href="#LiberationSans-2e"/>
       <use x="83.3984375" xlink:href="#LiberationSans-30"/>
      </g>
     </g>
    </g>
    <g id="ytick_2">
     <g id="line2d_34">
      <path clip-path="url(#pc057569fe7)" d="M 180 777.6 
L 1296 777.6 
" style="fill:none;stroke:#ffffff;stroke-linecap:round;"/>
     </g>
     <g id="line2d_35">
      <g>
       <use style="fill:#262626;stroke:#262626;" x="180.0" xlink:href="#m8077a3d434" y="777.6"/>
      </g>
     </g>
     <g id="line2d_36">
      <g>
       <use style="fill:#262626;stroke:#262626;" x="1296.0" xlink:href="#m8077a3d434" y="777.6"/>
      </g>
     </g>
     <g id="text_12">
      <!-- 0.5 -->
      <g style="fill:#262626;" transform="translate(159.1 780.1859375)scale(0.1 -0.1)">
       <use xlink:href="#LiberationSans-30"/>
       <use x="55.615234375" xlink:href="#LiberationSans-2e"/>
       <use x="83.3984375" xlink:href="#LiberationSans-35"/>
      </g>
     </g>
    </g>
    <g id="ytick_3">
     <g id="line2d_37">
      <path clip-path="url(#pc057569fe7)" d="M 180 610.2 
L 1296 610.2 
" style="fill:none;stroke:#ffffff;stroke-linecap:round;"/>
     </g>
     <g id="line2d_38">
      <g>
       <use style="fill:#262626;stroke:#262626;" x="180.0" xlink:href="#m8077a3d434" y="610.2"/>
      </g>
     </g>
     <g id="line2d_39">
      <g>
       <use style="fill:#262626;stroke:#262626;" x="1296.0" xlink:href="#m8077a3d434" y="610.2"/>
      </g>
     </g>
     <g id="text_13">
      <!-- 1.0 -->
      <g style="fill:#262626;" transform="translate(159.1 612.7859375)scale(0.1 -0.1)">
       <use xlink:href="#LiberationSans-31"/>
       <use x="55.615234375" xlink:href="#LiberationSans-2e"/>
       <use x="83.3984375" xlink:href="#LiberationSans-30"/>
      </g>
     </g>
    </g>
    <g id="ytick_4">
     <g id="line2d_40">
      <path clip-path="url(#pc057569fe7)" d="M 180 442.8 
L 1296 442.8 
" style="fill:none;stroke:#ffffff;stroke-linecap:round;"/>
     </g>
     <g id="line2d_41">
      <g>
       <use style="fill:#262626;stroke:#262626;" x="180.0" xlink:href="#m8077a3d434" y="442.8"/>
      </g>
     </g>
     <g id="line2d_42">
      <g>
       <use style="fill:#262626;stroke:#262626;" x="1296.0" xlink:href="#m8077a3d434" y="442.8"/>
      </g>
     </g>
     <g id="text_14">
      <!-- 1.5 -->
      <g style="fill:#262626;" transform="translate(159.1 445.3859375)scale(0.1 -0.1)">
       <use xlink:href="#LiberationSans-31"/>
       <use x="55.615234375" xlink:href="#LiberationSans-2e"/>
       <use x="83.3984375" xlink:href="#LiberationSans-35"/>
      </g>
     </g>
    </g>
    <g id="ytick_5">
     <g id="line2d_43">
      <path clip-path="url(#pc057569fe7)" d="M 180 275.4 
L 1296 275.4 
" style="fill:none;stroke:#ffffff;stroke-linecap:round;"/>
     </g>
     <g id="line2d_44">
      <g>
       <use style="fill:#262626;stroke:#262626;" x="180.0" xlink:href="#m8077a3d434" y="275.4"/>
      </g>
     </g>
     <g id="line2d_45">
      <g>
       <use style="fill:#262626;stroke:#262626;" x="1296.0" xlink:href="#m8077a3d434" y="275.4"/>
      </g>
     </g>
     <g id="text_15">
      <!-- 2.0 -->
      <g style="fill:#262626;" transform="translate(159.1 277.9859375)scale(0.1 -0.1)">
       <use xlink:href="#LiberationSans-32"/>
       <use x="55.615234375" xlink:href="#LiberationSans-2e"/>
       <use x="83.3984375" xlink:href="#LiberationSans-30"/>
      </g>
     </g>
    </g>
    <g id="ytick_6">
     <g id="line2d_46">
      <path clip-path="url(#pc057569fe7)" d="M 180 108 
L 1296 108 
" style="fill:none;stroke:#ffffff;stroke-linecap:round;"/>
     </g>
     <g id="line2d_47">
      <g>
       <use style="fill:#262626;stroke:#262626;" x="180.0" xlink:href="#m8077a3d434" y="108.0"/>
      </g>
     </g>
     <g id="line2d_48">
      <g>
       <use style="fill:#262626;stroke:#262626;" x="1296.0" xlink:href="#m8077a3d434" y="108.0"/>
      </g>
     </g>
     <g id="text_16">
      <!-- 2.5 -->
      <g style="fill:#262626;" transform="translate(159.1 110.5859375)scale(0.1 -0.1)">
       <use xlink:href="#LiberationSans-32"/>
       <use x="55.615234375" xlink:href="#LiberationSans-2e"/>
       <use x="83.3984375" xlink:href="#LiberationSans-35"/>
      </g>
     </g>
    </g>
   </g>
   <g id="patch_3">
    <path clip-path="url(#pc057569fe7)" d="M 594.714433 945 
L 608.945626 945 
L 608.945626 750.520163 
L 594.714433 750.520163 
z
" style="fill:#4c72b0;opacity:0.4;stroke:#000000;stroke-linejoin:miter;stroke-width:0.3;"/>
   </g>
   <g id="patch_4">
    <path clip-path="url(#pc057569fe7)" d="M 608.945626 945 
L 623.176818 945 
L 623.176818 847.760082 
L 608.945626 847.760082 
z
" style="fill:#4c72b0;opacity:0.4;stroke:#000000;stroke-linejoin:miter;stroke-width:0.3;"/>
   </g>
   <g id="patch_5">
    <path clip-path="url(#pc057569fe7)" d="M 623.176818 945 
L 637.408011 945 
L 637.408011 750.520163 
L 623.176818 750.520163 
z
" style="fill:#4c72b0;opacity:0.4;stroke:#000000;stroke-linejoin:miter;stroke-width:0.3;"/>
   </g>
   <g id="patch_6">
    <path clip-path="url(#pc057569fe7)" d="M 637.408011 945 
L 651.639203 945 
L 651.639203 945 
L 637.408011 945 
z
" style="fill:#4c72b0;opacity:0.4;stroke:#000000;stroke-linejoin:miter;stroke-width:0.3;"/>
   </g>
   <g id="patch_7">
    <path clip-path="url(#pc057569fe7)" d="M 651.639203 945 
L 665.870396 945 
L 665.870396 847.760082 
L 651.639203 847.760082 
z
" style="fill:#4c72b0;opacity:0.4;stroke:#000000;stroke-linejoin:miter;stroke-width:0.3;"/>
   </g>
   <g id="patch_8">
    <path clip-path="url(#pc057569fe7)" d="M 665.870396 945 
L 680.101589 945 
L 680.101589 750.520163 
L 665.870396 750.520163 
z
" style="fill:#4c72b0;opacity:0.4;stroke:#000000;stroke-linejoin:miter;stroke-width:0.3;"/>
   </g>
   <g id="patch_9">
    <path clip-path="url(#pc057569fe7)" d="M 680.101589 945 
L 694.332781 945 
L 694.332781 361.56049 
L 680.101589 361.56049 
z
" style="fill:#4c72b0;opacity:0.4;stroke:#000000;stroke-linejoin:miter;stroke-width:0.3;"/>
   </g>
   <g id="patch_10">
    <path clip-path="url(#pc057569fe7)" d="M 694.332781 945 
L 708.563974 945 
L 708.563974 458.800408 
L 694.332781 458.800408 
z
" style="fill:#4c72b0;opacity:0.4;stroke:#000000;stroke-linejoin:miter;stroke-width:0.3;"/>
   </g>
   <g id="patch_11">
    <path clip-path="url(#pc057569fe7)" d="M 708.563974 945 
L 722.795166 945 
L 722.795166 653.280245 
L 708.563974 653.280245 
z
" style="fill:#4c72b0;opacity:0.4;stroke:#000000;stroke-linejoin:miter;stroke-width:0.3;"/>
   </g>
   <g id="patch_12">
    <path clip-path="url(#pc057569fe7)" d="M 722.795166 945 
L 737.026359 945 
L 737.026359 264.320571 
L 722.795166 264.320571 
z
" style="fill:#4c72b0;opacity:0.4;stroke:#000000;stroke-linejoin:miter;stroke-width:0.3;"/>
   </g>
   <g id="patch_13">
    <path clip-path="url(#pc057569fe7)" d="M 737.026359 945 
L 751.257551 945 
L 751.257551 556.040326 
L 737.026359 556.040326 
z
" style="fill:#4c72b0;opacity:0.4;stroke:#000000;stroke-linejoin:miter;stroke-width:0.3;"/>
   </g>
   <g id="patch_14">
    <path clip-path="url(#pc057569fe7)" d="M 751.257551 945 
L 765.488744 945 
L 765.488744 361.56049 
L 751.257551 361.56049 
z
" style="fill:#4c72b0;opacity:0.4;stroke:#000000;stroke-linejoin:miter;stroke-width:0.3;"/>
   </g>
   <g id="patch_15">
    <path clip-path="url(#pc057569fe7)" d="M 765.488744 945 
L 779.719936 945 
L 779.719936 458.800408 
L 765.488744 458.800408 
z
" style="fill:#4c72b0;opacity:0.4;stroke:#000000;stroke-linejoin:miter;stroke-width:0.3;"/>
   </g>
   <g id="patch_16">
    <path clip-path="url(#pc057569fe7)" d="M 779.719936 945 
L 793.951129 945 
L 793.951129 556.040326 
L 779.719936 556.040326 
z
" style="fill:#4c72b0;opacity:0.4;stroke:#000000;stroke-linejoin:miter;stroke-width:0.3;"/>
   </g>
   <g id="patch_17">
    <path clip-path="url(#pc057569fe7)" d="M 793.951129 945 
L 808.182321 945 
L 808.182321 653.280245 
L 793.951129 653.280245 
z
" style="fill:#4c72b0;opacity:0.4;stroke:#000000;stroke-linejoin:miter;stroke-width:0.3;"/>
   </g>
   <g id="patch_18">
    <path clip-path="url(#pc057569fe7)" d="M 808.182321 945 
L 822.413514 945 
L 822.413514 847.760082 
L 808.182321 847.760082 
z
" style="fill:#4c72b0;opacity:0.4;stroke:#000000;stroke-linejoin:miter;stroke-width:0.3;"/>
   </g>
   <g id="patch_19">
    <path clip-path="url(#pc057569fe7)" d="M 822.413514 945 
L 836.644706 945 
L 836.644706 750.520163 
L 822.413514 750.520163 
z
" style="fill:#4c72b0;opacity:0.4;stroke:#000000;stroke-linejoin:miter;stroke-width:0.3;"/>
   </g>
   <g id="patch_20">
    <path clip-path="url(#pc057569fe7)" d="M 836.644706 945 
L 850.875899 945 
L 850.875899 653.280245 
L 836.644706 653.280245 
z
" style="fill:#4c72b0;opacity:0.4;stroke:#000000;stroke-linejoin:miter;stroke-width:0.3;"/>
   </g>
   <g id="patch_21">
    <path clip-path="url(#pc057569fe7)" d="M 850.875899 945 
L 865.107091 945 
L 865.107091 847.760082 
L 850.875899 847.760082 
z
" style="fill:#4c72b0;opacity:0.4;stroke:#000000;stroke-linejoin:miter;stroke-width:0.3;"/>
   </g>
   <g id="patch_22">
    <path clip-path="url(#pc057569fe7)" d="M 865.107091 945 
L 879.338284 945 
L 879.338284 750.520163 
L 865.107091 750.520163 
z
" style="fill:#4c72b0;opacity:0.4;stroke:#000000;stroke-linejoin:miter;stroke-width:0.3;"/>
   </g>
   <g id="patch_23">
    <path clip-path="url(#pc057569fe7)" d="M 566.984743 945 
L 579.679417 945 
L 579.679417 835.990503 
L 566.984743 835.990503 
z
" style="fill:#55a868;opacity:0.4;stroke:#000000;stroke-linejoin:miter;stroke-width:0.3;"/>
   </g>
   <g id="patch_24">
    <path clip-path="url(#pc057569fe7)" d="M 579.679417 945 
L 592.374091 945 
L 592.374091 617.97151 
L 579.679417 617.97151 
z
" style="fill:#55a868;opacity:0.4;stroke:#000000;stroke-linejoin:miter;stroke-width:0.3;"/>
   </g>
   <g id="patch_25">
    <path clip-path="url(#pc057569fe7)" d="M 592.374091 945 
L 605.068765 945 
L 605.068765 508.962013 
L 592.374091 508.962013 
z
" style="fill:#55a868;opacity:0.4;stroke:#000000;stroke-linejoin:miter;stroke-width:0.3;"/>
   </g>
   <g id="patch_26">
    <path clip-path="url(#pc057569fe7)" d="M 605.068765 945 
L 617.763439 945 
L 617.763439 399.952517 
L 605.068765 399.952517 
z
" style="fill:#55a868;opacity:0.4;stroke:#000000;stroke-linejoin:miter;stroke-width:0.3;"/>
   </g>
   <g id="patch_27">
    <path clip-path="url(#pc057569fe7)" d="M 617.763439 945 
L 630.458112 945 
L 630.458112 399.952517 
L 617.763439 399.952517 
z
" style="fill:#55a868;opacity:0.4;stroke:#000000;stroke-linejoin:miter;stroke-width:0.3;"/>
   </g>
   <g id="patch_28">
    <path clip-path="url(#pc057569fe7)" d="M 630.458112 945 
L 643.152786 945 
L 643.152786 290.94302 
L 630.458112 290.94302 
z
" style="fill:#55a868;opacity:0.4;stroke:#000000;stroke-linejoin:miter;stroke-width:0.3;"/>
   </g>
   <g id="patch_29">
    <path clip-path="url(#pc057569fe7)" d="M 643.152786 945 
L 655.84746 945 
L 655.84746 181.933523 
L 643.152786 181.933523 
z
" style="fill:#55a868;opacity:0.4;stroke:#000000;stroke-linejoin:miter;stroke-width:0.3;"/>
   </g>
   <g id="patch_30">
    <path clip-path="url(#pc057569fe7)" d="M 655.84746 945 
L 668.542134 945 
L 668.542134 290.94302 
L 655.84746 290.94302 
z
" style="fill:#55a868;opacity:0.4;stroke:#000000;stroke-linejoin:miter;stroke-width:0.3;"/>
   </g>
   <g id="patch_31">
    <path clip-path="url(#pc057569fe7)" d="M 668.542134 945 
L 681.236807 945 
L 681.236807 508.962013 
L 668.542134 508.962013 
z
" style="fill:#55a868;opacity:0.4;stroke:#000000;stroke-linejoin:miter;stroke-width:0.3;"/>
   </g>
   <g id="patch_32">
    <path clip-path="url(#pc057569fe7)" d="M 681.236807 945 
L 693.931481 945 
L 693.931481 617.97151 
L 681.236807 617.97151 
z
" style="fill:#55a868;opacity:0.4;stroke:#000000;stroke-linejoin:miter;stroke-width:0.3;"/>
   </g>
   <g id="patch_33">
    <path clip-path="url(#pc057569fe7)" d="M 693.931481 945 
L 706.626155 945 
L 706.626155 835.990503 
L 693.931481 835.990503 
z
" style="fill:#55a868;opacity:0.4;stroke:#000000;stroke-linejoin:miter;stroke-width:0.3;"/>
   </g>
   <g id="patch_34">
    <path clip-path="url(#pc057569fe7)" d="M 706.626155 945 
L 719.320829 945 
L 719.320829 508.962013 
L 706.626155 508.962013 
z
" style="fill:#55a868;opacity:0.4;stroke:#000000;stroke-linejoin:miter;stroke-width:0.3;"/>
   </g>
   <g id="patch_35">
    <path clip-path="url(#pc057569fe7)" d="M 719.320829 945 
L 732.015503 945 
L 732.015503 726.981007 
L 719.320829 726.981007 
z
" style="fill:#55a868;opacity:0.4;stroke:#000000;stroke-linejoin:miter;stroke-width:0.3;"/>
   </g>
   <g id="patch_36">
    <path clip-path="url(#pc057569fe7)" d="M 732.015503 945 
L 744.710176 945 
L 744.710176 726.981007 
L 732.015503 726.981007 
z
" style="fill:#55a868;opacity:0.4;stroke:#000000;stroke-linejoin:miter;stroke-width:0.3;"/>
   </g>
   <g id="patch_37">
    <path clip-path="url(#pc057569fe7)" d="M 744.710176 945 
L 757.40485 945 
L 757.40485 726.981007 
L 744.710176 726.981007 
z
" style="fill:#55a868;opacity:0.4;stroke:#000000;stroke-linejoin:miter;stroke-width:0.3;"/>
   </g>
   <g id="patch_38">
    <path clip-path="url(#pc057569fe7)" d="M 757.40485 945 
L 770.099524 945 
L 770.099524 726.981007 
L 757.40485 726.981007 
z
" style="fill:#55a868;opacity:0.4;stroke:#000000;stroke-linejoin:miter;stroke-width:0.3;"/>
   </g>
   <g id="patch_39">
    <path clip-path="url(#pc057569fe7)" d="M 770.099524 945 
L 782.794198 945 
L 782.794198 835.990503 
L 770.099524 835.990503 
z
" style="fill:#55a868;opacity:0.4;stroke:#000000;stroke-linejoin:miter;stroke-width:0.3;"/>
   </g>
   <g id="patch_40">
    <path clip-path="url(#pc057569fe7)" d="M 782.794198 945 
L 795.488872 945 
L 795.488872 835.990503 
L 782.794198 835.990503 
z
" style="fill:#55a868;opacity:0.4;stroke:#000000;stroke-linejoin:miter;stroke-width:0.3;"/>
   </g>
   <g id="patch_41">
    <path clip-path="url(#pc057569fe7)" d="M 795.488872 945 
L 808.183545 945 
L 808.183545 945 
L 795.488872 945 
z
" style="fill:#55a868;opacity:0.4;stroke:#000000;stroke-linejoin:miter;stroke-width:0.3;"/>
   </g>
   <g id="patch_42">
    <path clip-path="url(#pc057569fe7)" d="M 808.183545 945 
L 820.878219 945 
L 820.878219 835.990503 
L 808.183545 835.990503 
z
" style="fill:#55a868;opacity:0.4;stroke:#000000;stroke-linejoin:miter;stroke-width:0.3;"/>
   </g>
   <g id="line2d_49">
    <path clip-path="url(#pc057569fe7)" d="M 266.662437 945 
L 276.164738 945 
L 285.66704 945 
L 295.169341 945 
L 304.671642 945 
L 314.173944 945 
L 323.676245 945 
L 333.178547 945 
L 342.680848 945 
L 352.18315 945 
L 361.685451 945 
L 371.187753 945 
L 380.690054 945 
L 390.192356 945 
L 399.694657 945 
L 409.196958 945 
L 418.69926 945 
L 428.201561 944.999999 
L 437.703863 944.999991 
L 447.206164 944.99995 
L 456.708466 944.999737 
L 466.210767 944.998761 
L 475.713069 944.994742 
L 485.21537 944.979917 
L 494.717672 944.930945 
L 504.219973 944.786085 
L 513.722274 944.402539 
L 523.224576 943.493911 
L 532.726877 941.568901 
L 542.229179 937.924052 
L 551.73148 931.761391 
L 561.233782 922.466782 
L 570.736083 909.979029 
L 580.238385 895.052802 
L 589.740686 879.178649 
L 599.242988 864.050492 
L 608.745289 850.721749 
L 618.24759 838.814946 
L 627.749892 826.208544 
L 637.252193 809.483005 
L 646.754495 785.108715 
L 656.256796 750.982719 
L 665.759098 707.624834 
L 675.261399 658.36066 
L 684.763701 608.284169 
L 694.266002 562.500705 
L 703.768304 524.596298 
L 713.270605 496.0827 
L 722.772906 476.886425 
L 732.275208 466.35259 
L 741.777509 464.124957 
L 751.279811 470.528977 
L 760.782112 486.364734 
L 770.284414 512.18118 
L 779.786715 547.292316 
L 789.289017 589.0532 
L 798.791318 632.993818 
L 808.29362 674.047566 
L 817.795921 708.41082 
L 827.298222 735.02682 
L 836.800524 755.787547 
L 846.302825 774.305021 
L 855.805127 793.985257 
L 865.307428 816.495343 
L 874.80973 841.335136 
L 884.312031 866.478648 
L 893.814333 889.503801 
L 903.316634 908.566256 
L 912.818936 922.865559 
L 922.321237 932.600631 
L 931.823538 938.618046 
L 941.32584 941.992378 
L 950.828141 943.706436 
L 960.330443 944.493753 
L 969.832744 944.820186 
L 979.335046 944.942161 
L 988.837347 944.983183 
L 998.339649 944.995586 
L 1007.84195 944.998956 
L 1017.344252 944.999777 
L 1026.846553 944.999957 
L 1036.348854 944.999993 
L 1045.851156 944.999999 
L 1055.353457 945 
L 1064.855759 945 
L 1074.35806 945 
L 1083.860362 945 
L 1093.362663 945 
L 1102.864965 945 
L 1112.367266 945 
L 1121.869568 945 
L 1131.371869 945 
L 1140.87417 945 
L 1150.376472 945 
L 1159.878773 945 
L 1169.381075 945 
L 1178.883376 945 
L 1188.385678 945 
L 1197.887979 945 
L 1207.390281 945 
" style="fill:none;stroke:#4c72b0;stroke-linecap:round;stroke-width:1.75;"/>
   </g>
   <g id="line2d_50">
    <path clip-path="url(#pc057569fe7)" d="M 238.932747 945 
L 248.12464 945 
L 257.316534 945 
L 266.508428 945 
L 275.700321 945 
L 284.892215 945 
L 294.084108 945 
L 303.276002 945 
L 312.467896 945 
L 321.659789 945 
L 330.851683 945 
L 340.043577 945 
L 349.23547 945 
L 358.427364 945 
L 367.619257 945 
L 376.811151 945 
L 386.003045 945 
L 395.194938 945 
L 404.386832 945 
L 413.578726 945 
L 422.770619 944.999998 
L 431.962513 944.999985 
L 441.154406 944.999901 
L 450.3463 944.999423 
L 459.538194 944.997037 
L 468.730087 944.98655 
L 477.921981 944.945978 
L 487.113875 944.807439 
L 496.305768 944.388852 
L 505.497662 943.266087 
L 514.689555 940.58256 
L 523.881449 934.843968 
L 533.073343 923.819354 
L 542.265236 904.719774 
L 551.45713 874.782327 
L 560.649024 832.202775 
L 569.840917 777.084398 
L 579.032811 711.898704 
L 588.224705 641.119982 
L 597.416598 570.19193 
L 606.608492 504.419722 
L 615.800385 448.339629 
L 624.992279 405.661957 
L 634.184173 379.446909 
L 643.376066 372.024497 
L 652.56796 384.323678 
L 661.759854 414.770024 
L 670.951747 458.587351 
L 680.143641 508.51423 
L 689.335534 557.06674 
L 698.527428 599.121669 
L 707.719322 633.136522 
L 716.911215 660.390671 
L 726.103109 683.245535 
L 735.295003 703.951011 
L 744.486896 724.493724 
L 753.67879 746.673331 
L 762.870683 771.562248 
L 772.062577 798.661672 
L 781.254471 825.823173 
L 790.446364 850.362686 
L 799.638258 870.565632 
L 808.830152 886.406801 
L 818.022045 899.080068 
L 827.213939 909.917258 
L 836.405832 919.576444 
L 845.597726 927.948612 
L 854.78962 934.607011 
L 863.981513 939.313953 
L 873.173407 942.230156 
L 882.365301 943.804959 
L 891.557194 944.544923 
L 900.749088 944.8474 
L 909.940981 944.95501 
L 919.132875 944.98835 
L 928.324769 944.997353 
L 937.516662 944.999472 
L 946.708556 944.999908 
L 955.90045 944.999986 
L 965.092343 944.999998 
L 974.284237 945 
L 983.476131 945 
L 992.668024 945 
L 1001.859918 945 
L 1011.051811 945 
L 1020.243705 945 
L 1029.435599 945 
L 1038.627492 945 
L 1047.819386 945 
L 1057.01128 945 
L 1066.203173 945 
L 1075.395067 945 
L 1084.58696 945 
L 1093.778854 945 
L 1102.970748 945 
L 1112.162641 945 
L 1121.354535 945 
L 1130.546429 945 
L 1139.738322 945 
L 1148.930216 945 
" style="fill:none;stroke:#55a868;stroke-linecap:round;stroke-width:1.75;"/>
   </g>
   <g id="patch_43">
    <path d="M 180 945 
L 180 108 
" style="fill:none;"/>
   </g>
   <g id="patch_44">
    <path d="M 180 108 
L 1296 108 
" style="fill:none;"/>
   </g>
   <g id="patch_45">
    <path d="M 1296 945 
L 1296 108 
" style="fill:none;"/>
   </g>
   <g id="patch_46">
    <path d="M 180 945 
L 1296 945 
" style="fill:none;"/>
   </g>
  </g>
 </g>
 <defs>
  <clipPath id="pc057569fe7">
   <rect height="837.0" width="1116.0" x="180.0" y="108.0"/>
  </clipPath>
 </defs>
</svg>
